<svg xmlns="http://www.w3.org/2000/svg" width="24" height="24" viewBox="0 0 24 24">
    <g fill="none" fill-rule="evenodd">
        <g fill="#21272E">
            <g>
                <path d="M22.1 17c.497 0 .9.403.9.9s-.403.9-.9.9h-9.2c-.497 0-.9-.403-.9-.9s.403-.9.9-.9h9.2zm0-6c.497 0 .9.403.9.9s-.403.9-.9.9H1.9c-.497 0-.9-.403-.9-.9s.403-.9.9-.9h20.2zm-11-6c.497 0 .9.403.9.9s-.403.9-.9.9H1.9c-.497 0-.9-.403-.9-.9s.403-.9.9-.9h9.2z" transform="translate(-312 -127) translate(312 127)"/>
            </g>
        </g>
    </g>
</svg>
